<?xml version="1.0" encoding="UTF-8" standalone="no"?>
<!DOCTYPE svg PUBLIC "-//W3C//DTD SVG 1.1//EN"
 "http://www.w3.org/Graphics/SVG/1.1/DTD/svg11.dtd">
<!-- Generated by graphviz version 5.0.0 (20220707.1540)
 -->
<!-- Title: dependencies Pages: 1 -->
<svg width="959pt" height="247pt"
 viewBox="0.00 0.00 959.00 246.80" xmlns="http://www.w3.org/2000/svg" xmlns:xlink="http://www.w3.org/1999/xlink">
<g id="graph0" class="graph" transform="scale(1 1) rotate(0) translate(4 242.8)">
<title>dependencies</title>
<polygon fill="white" stroke="transparent" points="-4,4 -4,-242.8 955,-242.8 955,4 -4,4"/>
<text text-anchor="middle" x="475.5" y="-8.2" font-family="sans-serif" font-size="14.00">dependencies</text>
<g id="clust1" class="cluster">
<title>cluster_UserModule</title>
<polygon fill="none" stroke="black" stroke-dasharray="1,5" points="8,-32.8 8,-230.8 943,-230.8 943,-32.8 8,-32.8"/>
</g>
<g id="clust6" class="cluster">
<title>cluster_UserModule_providers</title>
<polygon fill="none" stroke="black" points="140,-40.8 140,-92.8 935,-92.8 935,-40.8 140,-40.8"/>
</g>
<g id="clust3" class="cluster">
<title>cluster_UserModule_imports</title>
<polygon fill="none" stroke="black" points="16,-40.8 16,-92.8 132,-92.8 132,-40.8 16,-40.8"/>
</g>
<g id="clust4" class="cluster">
<title>cluster_UserModule_exports</title>
<polygon fill="none" stroke="black" points="378,-170.8 378,-222.8 482,-222.8 482,-170.8 378,-170.8"/>
</g>
<!-- TransitModule -->
<g id="node1" class="node">
<title>TransitModule</title>
<polygon fill="#8dd3c7" stroke="black" points="123.71,-84.8 120.71,-88.8 99.71,-88.8 96.71,-84.8 24.29,-84.8 24.29,-48.8 123.71,-48.8 123.71,-84.8"/>
<text text-anchor="middle" x="74" y="-62.6" font-family="Times,serif" font-size="14.00">TransitModule</text>
</g>
<!-- UserModule -->
<g id="node2" class="node">
<title>UserModule</title>
<polygon fill="#8dd3c7" stroke="black" points="472.99,-149.8 469.99,-153.8 448.99,-153.8 445.99,-149.8 387.01,-149.8 387.01,-113.8 472.99,-113.8 472.99,-149.8"/>
<text text-anchor="middle" x="430" y="-127.6" font-family="Times,serif" font-size="14.00">UserModule</text>
</g>
<!-- TransitModule&#45;&gt;UserModule -->
<g id="edge1" class="edge">
<title>TransitModule&#45;&gt;UserModule</title>
<path fill="none" stroke="black" d="M74,-85.08C74,-106.12 74,-137.8 74,-137.8 74,-137.8 376.7,-137.8 376.7,-137.8"/>
<polygon fill="black" stroke="black" points="376.7,-141.3 386.7,-137.8 376.7,-134.3 376.7,-141.3"/>
</g>
<!-- UserService  -->
<g id="node3" class="node">
<title>UserService </title>
<polygon fill="#fb8072" stroke="black" points="473.91,-214.8 386.09,-214.8 386.09,-178.8 473.91,-178.8 473.91,-214.8"/>
<text text-anchor="middle" x="430" y="-192.6" font-family="Times,serif" font-size="14.00">UserService </text>
</g>
<!-- UserModule&#45;&gt;UserService  -->
<g id="edge2" class="edge">
<title>UserModule&#45;&gt;UserService </title>
<path fill="none" stroke="black" stroke-dasharray="5,2" d="M430,-149.91C430,-149.91 430,-168.79 430,-168.79"/>
<polygon fill="black" stroke="black" points="426.5,-168.79 430,-178.79 433.5,-168.79 426.5,-168.79"/>
</g>
<!-- BookingRepository -->
<g id="node4" class="node">
<title>BookingRepository</title>
<ellipse fill="#fdb462" stroke="black" cx="840" cy="-66.8" rx="86.87" ry="18"/>
<text text-anchor="middle" x="840" y="-62.6" font-family="Times,serif" font-size="14.00">BookingRepository</text>
</g>
<!-- BookingRepository&#45;&gt;UserModule -->
<g id="edge3" class="edge">
<title>BookingRepository&#45;&gt;UserModule</title>
<path fill="none" stroke="black" d="M840,-85.08C840,-106.12 840,-137.8 840,-137.8 840,-137.8 483.1,-137.8 483.1,-137.8"/>
<polygon fill="black" stroke="black" points="483.1,-134.3 473.1,-137.8 483.1,-141.3 483.1,-134.3"/>
</g>
<!-- BookingService -->
<g id="node5" class="node">
<title>BookingService</title>
<ellipse fill="#fdb462" stroke="black" cx="662" cy="-66.8" rx="73.02" ry="18"/>
<text text-anchor="middle" x="662" y="-62.6" font-family="Times,serif" font-size="14.00">BookingService</text>
</g>
<!-- BookingService&#45;&gt;UserModule -->
<g id="edge4" class="edge">
<title>BookingService&#45;&gt;UserModule</title>
<path fill="none" stroke="black" d="M662,-84.82C662,-102.17 662,-125.8 662,-125.8 662,-125.8 483.09,-125.8 483.09,-125.8"/>
<polygon fill="black" stroke="black" points="483.09,-122.3 473.09,-125.8 483.09,-129.3 483.09,-122.3"/>
</g>
<!-- SavedService -->
<g id="node6" class="node">
<title>SavedService</title>
<ellipse fill="#fdb462" stroke="black" cx="507" cy="-66.8" rx="63.69" ry="18"/>
<text text-anchor="middle" x="507" y="-62.6" font-family="Times,serif" font-size="14.00">SavedService</text>
</g>
<!-- SavedService&#45;&gt;UserModule -->
<g id="edge5" class="edge">
<title>SavedService&#45;&gt;UserModule</title>
<path fill="none" stroke="black" d="M458.2,-78.42C458.2,-78.42 458.2,-103.65 458.2,-103.65"/>
<polygon fill="black" stroke="black" points="454.7,-103.65 458.2,-113.65 461.7,-103.65 454.7,-103.65"/>
</g>
<!-- UserRepository -->
<g id="node7" class="node">
<title>UserRepository</title>
<ellipse fill="#fdb462" stroke="black" cx="354" cy="-66.8" rx="71.8" ry="18"/>
<text text-anchor="middle" x="354" y="-62.6" font-family="Times,serif" font-size="14.00">UserRepository</text>
</g>
<!-- UserRepository&#45;&gt;UserModule -->
<g id="edge6" class="edge">
<title>UserRepository&#45;&gt;UserModule</title>
<path fill="none" stroke="black" d="M406.33,-79.33C406.33,-79.33 406.33,-103.65 406.33,-103.65"/>
<polygon fill="black" stroke="black" points="402.83,-103.65 406.33,-113.65 409.83,-103.65 402.83,-103.65"/>
</g>
<!-- UserService -->
<g id="node8" class="node">
<title>UserService</title>
<ellipse fill="#fdb462" stroke="black" cx="206" cy="-66.8" rx="58.46" ry="18"/>
<text text-anchor="middle" x="206" y="-62.6" font-family="Times,serif" font-size="14.00">UserService</text>
</g>
<!-- UserService&#45;&gt;UserModule -->
<g id="edge7" class="edge">
<title>UserService&#45;&gt;UserModule</title>
<path fill="none" stroke="black" d="M206,-84.82C206,-102.17 206,-125.8 206,-125.8 206,-125.8 376.81,-125.8 376.81,-125.8"/>
<polygon fill="black" stroke="black" points="376.81,-129.3 386.81,-125.8 376.81,-122.3 376.81,-129.3"/>
</g>
</g>
</svg>
