<?xml version="1.0" encoding="UTF-8" standalone="no"?>
<!DOCTYPE svg PUBLIC "-//W3C//DTD SVG 1.1//EN"
 "http://www.w3.org/Graphics/SVG/1.1/DTD/svg11.dtd">
<!-- Generated by graphviz version 5.0.0 (20220707.1540)
 -->
<!-- Title: dependencies Pages: 1 -->
<svg width="2430pt" height="247pt"
 viewBox="0.00 0.00 2430.00 246.80" xmlns="http://www.w3.org/2000/svg" xmlns:xlink="http://www.w3.org/1999/xlink">
<g id="graph0" class="graph" transform="scale(1 1) rotate(0) translate(4 242.8)">
<title>dependencies</title>
<polygon fill="white" stroke="transparent" points="-4,4 -4,-242.8 2426,-242.8 2426,4 -4,4"/>
<text text-anchor="middle" x="1211" y="-8.2" font-family="sans-serif" font-size="14.00">dependencies</text>
<g id="clust1" class="cluster">
<title>cluster_TransitModule</title>
<polygon fill="none" stroke="black" stroke-dasharray="1,5" points="8,-32.8 8,-230.8 2414,-230.8 2414,-32.8 8,-32.8"/>
</g>
<g id="clust4" class="cluster">
<title>cluster_TransitModule_exports</title>
<polygon fill="none" stroke="black" points="1148,-170.8 1148,-222.8 1252,-222.8 1252,-170.8 1148,-170.8"/>
</g>
<g id="clust6" class="cluster">
<title>cluster_TransitModule_providers</title>
<polygon fill="none" stroke="black" points="16,-40.8 16,-92.8 2406,-92.8 2406,-40.8 16,-40.8"/>
</g>
<!-- DataService  -->
<g id="node1" class="node">
<title>DataService </title>
<polygon fill="#fb8072" stroke="black" points="1243.91,-214.8 1156.09,-214.8 1156.09,-178.8 1243.91,-178.8 1243.91,-214.8"/>
<text text-anchor="middle" x="1200" y="-192.6" font-family="Times,serif" font-size="14.00">DataService </text>
</g>
<!-- TransitModule -->
<g id="node2" class="node">
<title>TransitModule</title>
<polygon fill="#8dd3c7" stroke="black" points="1249.71,-149.8 1246.71,-153.8 1225.71,-153.8 1222.71,-149.8 1150.29,-149.8 1150.29,-113.8 1249.71,-113.8 1249.71,-149.8"/>
<text text-anchor="middle" x="1200" y="-127.6" font-family="Times,serif" font-size="14.00">TransitModule</text>
</g>
<!-- TransitModule&#45;&gt;DataService  -->
<g id="edge1" class="edge">
<title>TransitModule&#45;&gt;DataService </title>
<path fill="none" stroke="black" stroke-dasharray="5,2" d="M1200,-149.91C1200,-149.91 1200,-168.79 1200,-168.79"/>
<polygon fill="black" stroke="black" points="1196.5,-168.79 1200,-178.79 1203.5,-168.79 1196.5,-168.79"/>
</g>
<!-- DBUpdateService -->
<g id="node3" class="node">
<title>DBUpdateService</title>
<ellipse fill="#fdb462" stroke="black" cx="2317" cy="-66.8" rx="81.09" ry="18"/>
<text text-anchor="middle" x="2317" y="-62.6" font-family="Times,serif" font-size="14.00">DBUpdateService</text>
</g>
<!-- DBUpdateService&#45;&gt;TransitModule -->
<g id="edge2" class="edge">
<title>DBUpdateService&#45;&gt;TransitModule</title>
<path fill="none" stroke="black" d="M2317,-85.12C2317,-108.46 2317,-145.8 2317,-145.8 2317,-145.8 1259.8,-145.8 1259.8,-145.8"/>
<polygon fill="black" stroke="black" points="1259.8,-142.3 1249.8,-145.8 1259.8,-149.3 1259.8,-142.3"/>
</g>
<!-- DataService -->
<g id="node4" class="node">
<title>DataService</title>
<ellipse fill="#fdb462" stroke="black" cx="2159" cy="-66.8" rx="58.45" ry="18"/>
<text text-anchor="middle" x="2159" y="-62.6" font-family="Times,serif" font-size="14.00">DataService</text>
</g>
<!-- DataService&#45;&gt;TransitModule -->
<g id="edge3" class="edge">
<title>DataService&#45;&gt;TransitModule</title>
<path fill="none" stroke="black" d="M2159,-85.09C2159,-107.01 2159,-140.8 2159,-140.8 2159,-140.8 1259.87,-140.8 1259.87,-140.8"/>
<polygon fill="black" stroke="black" points="1259.87,-137.3 1249.87,-140.8 1259.87,-144.3 1259.87,-137.3"/>
</g>
<!-- LineRepository -->
<g id="node5" class="node">
<title>LineRepository</title>
<ellipse fill="#fdb462" stroke="black" cx="2012" cy="-66.8" rx="71.23" ry="18"/>
<text text-anchor="middle" x="2012" y="-62.6" font-family="Times,serif" font-size="14.00">LineRepository</text>
</g>
<!-- LineRepository&#45;&gt;TransitModule -->
<g id="edge4" class="edge">
<title>LineRepository&#45;&gt;TransitModule</title>
<path fill="none" stroke="black" d="M2012,-84.83C2012,-105.57 2012,-136.8 2012,-136.8 2012,-136.8 1259.88,-136.8 1259.88,-136.8"/>
<polygon fill="black" stroke="black" points="1259.88,-133.3 1249.88,-136.8 1259.88,-140.3 1259.88,-133.3"/>
</g>
<!-- LineService -->
<g id="node6" class="node">
<title>LineService</title>
<ellipse fill="#fdb462" stroke="black" cx="1865" cy="-66.8" rx="57.88" ry="18"/>
<text text-anchor="middle" x="1865" y="-62.6" font-family="Times,serif" font-size="14.00">LineService</text>
</g>
<!-- LineService&#45;&gt;TransitModule -->
<g id="edge5" class="edge">
<title>LineService&#45;&gt;TransitModule</title>
<path fill="none" stroke="black" d="M1865,-84.91C1865,-104.14 1865,-131.8 1865,-131.8 1865,-131.8 1259.71,-131.8 1259.71,-131.8"/>
<polygon fill="black" stroke="black" points="1259.71,-128.3 1249.71,-131.8 1259.71,-135.3 1259.71,-128.3"/>
</g>
<!-- LiveDataRepository -->
<g id="node7" class="node">
<title>LiveDataRepository</title>
<ellipse fill="#fdb462" stroke="black" cx="1700" cy="-66.8" rx="89.19" ry="18"/>
<text text-anchor="middle" x="1700" y="-62.6" font-family="Times,serif" font-size="14.00">LiveDataRepository</text>
</g>
<!-- LiveDataRepository&#45;&gt;TransitModule -->
<g id="edge6" class="edge">
<title>LiveDataRepository&#45;&gt;TransitModule</title>
<path fill="none" stroke="black" d="M1700,-85.1C1700,-103.07 1700,-127.8 1700,-127.8 1700,-127.8 1259.77,-127.8 1259.77,-127.8"/>
<polygon fill="black" stroke="black" points="1259.77,-124.3 1249.77,-127.8 1259.77,-131.3 1259.77,-124.3"/>
</g>
<!-- LiveUpdatesService -->
<g id="node8" class="node">
<title>LiveUpdatesService</title>
<ellipse fill="#fdb462" stroke="black" cx="1503" cy="-66.8" rx="89.17" ry="18"/>
<text text-anchor="middle" x="1503" y="-62.6" font-family="Times,serif" font-size="14.00">LiveUpdatesService</text>
</g>
<!-- LiveUpdatesService&#45;&gt;TransitModule -->
<g id="edge7" class="edge">
<title>LiveUpdatesService&#45;&gt;TransitModule</title>
<path fill="none" stroke="black" d="M1503,-84.83C1503,-101.2 1503,-122.8 1503,-122.8 1503,-122.8 1259.69,-122.8 1259.69,-122.8"/>
<polygon fill="black" stroke="black" points="1259.7,-119.3 1249.69,-122.8 1259.69,-126.3 1259.7,-119.3"/>
</g>
<!-- OTPService -->
<g id="node9" class="node">
<title>OTPService</title>
<ellipse fill="#fdb462" stroke="black" cx="1337" cy="-66.8" rx="58.47" ry="18"/>
<text text-anchor="middle" x="1337" y="-62.6" font-family="Times,serif" font-size="14.00">OTPService</text>
</g>
<!-- OTPService&#45;&gt;TransitModule -->
<g id="edge8" class="edge">
<title>OTPService&#45;&gt;TransitModule</title>
<path fill="none" stroke="black" d="M1337,-84.99C1337,-99.98 1337,-118.8 1337,-118.8 1337,-118.8 1259.85,-118.8 1259.85,-118.8"/>
<polygon fill="black" stroke="black" points="1259.85,-115.3 1249.85,-118.8 1259.85,-122.3 1259.85,-115.3"/>
</g>
<!-- PointService -->
<g id="node10" class="node">
<title>PointService</title>
<ellipse fill="#fdb462" stroke="black" cx="1200" cy="-66.8" rx="60.27" ry="18"/>
<text text-anchor="middle" x="1200" y="-62.6" font-family="Times,serif" font-size="14.00">PointService</text>
</g>
<!-- PointService&#45;&gt;TransitModule -->
<g id="edge9" class="edge">
<title>PointService&#45;&gt;TransitModule</title>
<path fill="none" stroke="black" d="M1200,-84.91C1200,-84.91 1200,-103.79 1200,-103.79"/>
<polygon fill="black" stroke="black" points="1196.5,-103.79 1200,-113.79 1203.5,-103.79 1196.5,-103.79"/>
</g>
<!-- RouteService -->
<g id="node11" class="node">
<title>RouteService</title>
<ellipse fill="#fdb462" stroke="black" cx="1059" cy="-66.8" rx="63.12" ry="18"/>
<text text-anchor="middle" x="1059" y="-62.6" font-family="Times,serif" font-size="14.00">RouteService</text>
</g>
<!-- RouteService&#45;&gt;TransitModule -->
<g id="edge10" class="edge">
<title>RouteService&#45;&gt;TransitModule</title>
<path fill="none" stroke="black" d="M1059,-84.99C1059,-99.98 1059,-118.8 1059,-118.8 1059,-118.8 1140.29,-118.8 1140.29,-118.8"/>
<polygon fill="black" stroke="black" points="1140.29,-122.3 1150.29,-118.8 1140.29,-115.3 1140.29,-122.3"/>
</g>
<!-- RouteStopService -->
<g id="node12" class="node">
<title>RouteStopService</title>
<ellipse fill="#fdb462" stroke="black" cx="897" cy="-66.8" rx="80.54" ry="18"/>
<text text-anchor="middle" x="897" y="-62.6" font-family="Times,serif" font-size="14.00">RouteStopService</text>
</g>
<!-- RouteStopService&#45;&gt;TransitModule -->
<g id="edge11" class="edge">
<title>RouteStopService&#45;&gt;TransitModule</title>
<path fill="none" stroke="black" d="M897,-84.83C897,-101.2 897,-122.8 897,-122.8 897,-122.8 1140.31,-122.8 1140.31,-122.8"/>
<polygon fill="black" stroke="black" points="1140.31,-126.3 1150.31,-122.8 1140.3,-119.3 1140.31,-126.3"/>
</g>
<!-- ScheduleService -->
<g id="node13" class="node">
<title>ScheduleService</title>
<ellipse fill="#fdb462" stroke="black" cx="723" cy="-66.8" rx="75.28" ry="18"/>
<text text-anchor="middle" x="723" y="-62.6" font-family="Times,serif" font-size="14.00">ScheduleService</text>
</g>
<!-- ScheduleService&#45;&gt;TransitModule -->
<g id="edge12" class="edge">
<title>ScheduleService&#45;&gt;TransitModule</title>
<path fill="none" stroke="black" d="M723,-85.1C723,-103.07 723,-127.8 723,-127.8 723,-127.8 1140.3,-127.8 1140.3,-127.8"/>
<polygon fill="black" stroke="black" points="1140.3,-131.3 1150.3,-127.8 1140.3,-124.3 1140.3,-131.3"/>
</g>
<!-- StopService -->
<g id="node14" class="node">
<title>StopService</title>
<ellipse fill="#fdb462" stroke="black" cx="572" cy="-66.8" rx="57.91" ry="18"/>
<text text-anchor="middle" x="572" y="-62.6" font-family="Times,serif" font-size="14.00">StopService</text>
</g>
<!-- StopService&#45;&gt;TransitModule -->
<g id="edge13" class="edge">
<title>StopService&#45;&gt;TransitModule</title>
<path fill="none" stroke="black" d="M572,-84.91C572,-104.14 572,-131.8 572,-131.8 572,-131.8 1140.2,-131.8 1140.2,-131.8"/>
<polygon fill="black" stroke="black" points="1140.2,-135.3 1150.2,-131.8 1140.2,-128.3 1140.2,-135.3"/>
</g>
<!-- TripRepository -->
<g id="node15" class="node">
<title>TripRepository</title>
<ellipse fill="#fdb462" stroke="black" cx="426" cy="-66.8" rx="70.09" ry="18"/>
<text text-anchor="middle" x="426" y="-62.6" font-family="Times,serif" font-size="14.00">TripRepository</text>
</g>
<!-- TripRepository&#45;&gt;TransitModule -->
<g id="edge14" class="edge">
<title>TripRepository&#45;&gt;TransitModule</title>
<path fill="none" stroke="black" d="M426,-84.83C426,-105.57 426,-136.8 426,-136.8 426,-136.8 1140.11,-136.8 1140.11,-136.8"/>
<polygon fill="black" stroke="black" points="1140.11,-140.3 1150.11,-136.8 1140.11,-133.3 1140.11,-140.3"/>
</g>
<!-- TripService -->
<g id="node16" class="node">
<title>TripService</title>
<ellipse fill="#fdb462" stroke="black" cx="281" cy="-66.8" rx="56.74" ry="18"/>
<text text-anchor="middle" x="281" y="-62.6" font-family="Times,serif" font-size="14.00">TripService</text>
</g>
<!-- TripService&#45;&gt;TransitModule -->
<g id="edge15" class="edge">
<title>TripService&#45;&gt;TransitModule</title>
<path fill="none" stroke="black" d="M281,-85.09C281,-107.01 281,-140.8 281,-140.8 281,-140.8 1140.26,-140.8 1140.26,-140.8"/>
<polygon fill="black" stroke="black" points="1140.26,-144.3 1150.26,-140.8 1140.26,-137.3 1140.26,-144.3"/>
</g>
<!-- TripUpdatesListener -->
<g id="node17" class="node">
<title>TripUpdatesListener</title>
<ellipse fill="#fdb462" stroke="black" cx="115" cy="-66.8" rx="90.89" ry="18"/>
<text text-anchor="middle" x="115" y="-62.6" font-family="Times,serif" font-size="14.00">TripUpdatesListener</text>
</g>
<!-- TripUpdatesListener&#45;&gt;TransitModule -->
<g id="edge16" class="edge">
<title>TripUpdatesListener&#45;&gt;TransitModule</title>
<path fill="none" stroke="black" d="M115,-85.12C115,-108.46 115,-145.8 115,-145.8 115,-145.8 1140.2,-145.8 1140.2,-145.8"/>
<polygon fill="black" stroke="black" points="1140.2,-149.3 1150.2,-145.8 1140.2,-142.3 1140.2,-149.3"/>
</g>
</g>
</svg>
