<?xml version="1.0" encoding="UTF-8" standalone="no"?>
<!DOCTYPE svg PUBLIC "-//W3C//DTD SVG 1.1//EN"
 "http://www.w3.org/Graphics/SVG/1.1/DTD/svg11.dtd">
<!-- Generated by graphviz version 5.0.0 (20220707.1540)
 -->
<!-- Title: dependencies Pages: 1 -->
<svg width="365pt" height="174pt"
 viewBox="0.00 0.00 365.00 173.80" xmlns="http://www.w3.org/2000/svg" xmlns:xlink="http://www.w3.org/1999/xlink">
<g id="graph0" class="graph" transform="scale(1 1) rotate(0) translate(4 169.8)">
<title>dependencies</title>
<polygon fill="white" stroke="transparent" points="-4,4 -4,-169.8 361,-169.8 361,4 -4,4"/>
<text text-anchor="middle" x="178.5" y="-8.2" font-family="sans-serif" font-size="14.00">dependencies</text>
<g id="clust1" class="cluster">
<title>cluster_AppModule</title>
<polygon fill="none" stroke="black" stroke-dasharray="1,5" points="8,-32.8 8,-157.8 349,-157.8 349,-32.8 8,-32.8"/>
</g>
<g id="clust3" class="cluster">
<title>cluster_AppModule_imports</title>
<polygon fill="none" stroke="black" points="16,-40.8 16,-92.8 341,-92.8 341,-40.8 16,-40.8"/>
</g>
<!-- AuthModule -->
<g id="node1" class="node">
<title>AuthModule</title>
<polygon fill="#8dd3c7" stroke="black" points="332.55,-84.8 329.55,-88.8 308.55,-88.8 305.55,-84.8 245.45,-84.8 245.45,-48.8 332.55,-48.8 332.55,-84.8"/>
<text text-anchor="middle" x="289" y="-62.6" font-family="Times,serif" font-size="14.00">AuthModule</text>
</g>
<!-- AppModule -->
<g id="node4" class="node">
<title>AppModule</title>
<polygon fill="#8dd3c7" stroke="black" points="219.66,-149.8 216.66,-153.8 195.66,-153.8 192.66,-149.8 136.34,-149.8 136.34,-113.8 219.66,-113.8 219.66,-149.8"/>
<text text-anchor="middle" x="178" y="-127.6" font-family="Times,serif" font-size="14.00">AppModule</text>
</g>
<!-- AuthModule&#45;&gt;AppModule -->
<g id="edge1" class="edge">
<title>AuthModule&#45;&gt;AppModule</title>
<path fill="none" stroke="black" d="M289,-84.91C289,-104.14 289,-131.8 289,-131.8 289,-131.8 229.96,-131.8 229.96,-131.8"/>
<polygon fill="black" stroke="black" points="229.96,-128.3 219.96,-131.8 229.96,-135.3 229.96,-128.3"/>
</g>
<!-- TransitModule -->
<g id="node2" class="node">
<title>TransitModule</title>
<polygon fill="#8dd3c7" stroke="black" points="227.71,-84.8 224.71,-88.8 203.71,-88.8 200.71,-84.8 128.29,-84.8 128.29,-48.8 227.71,-48.8 227.71,-84.8"/>
<text text-anchor="middle" x="178" y="-62.6" font-family="Times,serif" font-size="14.00">TransitModule</text>
</g>
<!-- TransitModule&#45;&gt;AppModule -->
<g id="edge2" class="edge">
<title>TransitModule&#45;&gt;AppModule</title>
<path fill="none" stroke="black" d="M178,-84.91C178,-84.91 178,-103.79 178,-103.79"/>
<polygon fill="black" stroke="black" points="174.5,-103.79 178,-113.79 181.5,-103.79 174.5,-103.79"/>
</g>
<!-- UserModule -->
<g id="node3" class="node">
<title>UserModule</title>
<polygon fill="#8dd3c7" stroke="black" points="109.99,-84.8 106.99,-88.8 85.99,-88.8 82.99,-84.8 24.01,-84.8 24.01,-48.8 109.99,-48.8 109.99,-84.8"/>
<text text-anchor="middle" x="67" y="-62.6" font-family="Times,serif" font-size="14.00">UserModule</text>
</g>
<!-- UserModule&#45;&gt;AppModule -->
<g id="edge3" class="edge">
<title>UserModule&#45;&gt;AppModule</title>
<path fill="none" stroke="black" d="M67,-84.91C67,-104.14 67,-131.8 67,-131.8 67,-131.8 126.04,-131.8 126.04,-131.8"/>
<polygon fill="black" stroke="black" points="126.04,-135.3 136.04,-131.8 126.04,-128.3 126.04,-135.3"/>
</g>
</g>
</svg>
